<svg width="235" height="103" viewBox="0 0 235 103" fill="none" xmlns="http://www.w3.org/2000/svg">
<path d="M64.4674 2V46.5292H50.5843V13.0203H12V2H64.4674Z" fill="#ddd"/>
<path d="M33.5359 67.7574V68.5637C33.5359 76.4482 31.3422 82.9588 26.9549 88.0957C22.5676 93.2325 15.6561 96.667 6.22037 98.3992L0 87.5581C5.40902 86.7816 9.70618 85.4675 12.8915 83.6159C16.1369 81.7045 18.4207 79.4944 19.7429 76.9858C21.0651 74.4173 21.7262 71.61 21.7262 68.5637V67.7574H33.5359ZM38.7646 67.7574V68.5637C38.7646 71.61 39.4257 74.4173 40.7479 76.9858C42.0701 79.4944 44.3239 81.7045 47.5092 83.6159C50.7546 85.4675 55.0818 86.7816 60.4908 87.5581L54.2705 98.3992C44.8347 96.667 37.9232 93.2325 33.5359 88.0957C29.1486 82.9588 26.9549 76.4482 26.9549 68.5637V67.7574H38.7646ZM57.4257 57.2746V68.5637H3.33556V57.2746H57.4257ZM37.4124 45V63.0088H23.2588V45H37.4124Z" fill="#ddd"/>
<path d="M95.414 36C100.162 36 104.549 37.0154 108.576 39.0463C112.663 41.0771 115.878 43.8844 118.222 47.4683C120.626 51.0521 121.828 55.0242 121.828 59.3845C121.828 63.8046 120.626 67.8066 118.222 71.3904C115.878 74.9742 112.663 77.8114 108.576 79.902C104.549 81.9329 100.162 82.9483 95.414 82.9483C90.6661 82.9483 86.2487 81.9329 82.1619 79.902C78.1352 77.8114 74.9199 74.9742 72.5159 71.3904C70.172 67.8066 69 63.8046 69 59.3845C69 55.0242 70.172 51.0521 72.5159 47.4683C74.9199 43.8844 78.1352 41.0771 82.1619 39.0463C86.2487 37.0154 90.6661 36 95.414 36ZM95.414 47.8267C92.9499 47.8267 90.7262 48.3045 88.7429 49.2602C86.7596 50.1562 85.197 51.5001 84.0551 53.292C82.9132 55.0242 82.3422 57.055 82.3422 59.3845C82.3422 61.7738 82.9132 63.8643 84.0551 65.6563C85.197 67.4482 86.7596 68.822 88.7429 69.7777C90.7262 70.6736 92.9499 71.1216 95.414 71.1216C97.8781 71.1216 100.102 70.6736 102.085 69.7777C104.068 68.822 105.631 67.4482 106.773 65.6563C107.915 63.8643 108.486 61.7738 108.486 59.3845C108.486 57.055 107.915 55.0242 106.773 53.292C105.631 51.5001 104.068 50.1562 102.085 49.2602C100.102 48.3045 97.8781 47.8267 95.414 47.8267Z" fill="#ddd"/>
<path d="M144.414 0C149.162 0 153.549 1.01542 157.576 3.04626C161.663 5.07711 164.878 7.88445 167.222 11.4683C169.626 15.0521 170.828 19.0242 170.828 23.3845C170.828 27.8046 169.626 31.8066 167.222 35.3904C164.878 38.9742 161.663 41.8114 157.576 43.902C153.549 45.9329 149.162 46.9483 144.414 46.9483C139.666 46.9483 135.249 45.9329 131.162 43.902C127.135 41.8114 123.92 38.9742 121.516 35.3904C119.172 31.8066 118 27.8046 118 23.3845C118 19.0242 119.172 15.0521 121.516 11.4683C123.92 7.88445 127.135 5.07711 131.162 3.04626C135.249 1.01542 139.666 0 144.414 0ZM144.414 11.8267C141.95 11.8267 139.726 12.3045 137.743 13.2602C135.76 14.1562 134.197 15.5001 133.055 17.292C131.913 19.0242 131.342 21.055 131.342 23.3845C131.342 25.7738 131.913 27.8643 133.055 29.6563C134.197 31.4482 135.76 32.822 137.743 33.7777C139.726 34.6736 141.95 35.1216 144.414 35.1216C146.878 35.1216 149.102 34.6736 151.085 33.7777C153.068 32.822 154.631 31.4482 155.773 29.6563C156.915 27.8643 157.486 25.7738 157.486 23.3845C157.486 21.055 156.915 19.0242 155.773 17.292C154.631 15.5001 153.068 14.1562 151.085 13.2602C149.102 12.3045 146.878 11.8267 144.414 11.8267Z" fill="#ddd"/>
<path d="M188.189 90.9858V102.096H135V90.9858H188.189ZM149.154 59V95.1968H135V59H149.154Z" fill="#ddd"/>
<path d="M233.746 33V44.0203H196.154V70.0927H182V33H233.746ZM234.377 66.7777V77.798H182V66.7777H234.377Z" fill="#ddd"/>
<path opacity="0.3" fill-rule="evenodd" clip-rule="evenodd" d="M157.823 3.04626C153.796 1.01542 149.409 0 144.661 0C139.913 0 135.496 1.01542 131.409 3.04626C127.382 5.07711 124.167 7.88445 121.763 11.4683C119.419 15.0521 118.247 19.0242 118.247 23.3845C118.247 27.8046 119.419 31.8066 121.763 35.3904C124.167 38.9742 127.382 41.8114 131.409 43.902C135.496 45.9329 139.913 46.9483 144.661 46.9483C149.409 46.9483 153.796 45.9329 157.823 43.902C161.91 41.8114 165.125 38.9742 167.469 35.3904C169.873 31.8066 171.075 27.8046 171.075 23.3845C171.075 19.0242 169.873 15.0521 167.469 11.4683C165.125 7.88445 161.91 5.07711 157.823 3.04626ZM137.99 13.2602C139.973 12.3045 142.197 11.8267 144.661 11.8267C147.125 11.8267 149.349 12.3045 151.332 13.2602C153.315 14.1562 154.878 15.5001 156.02 17.292C157.162 19.0242 157.733 21.055 157.733 23.3845C157.733 25.7738 157.162 27.8643 156.02 29.6563C154.878 31.4482 153.315 32.822 151.332 33.7777C149.349 34.6736 147.125 35.1216 144.661 35.1216C142.197 35.1216 139.973 34.6736 137.99 33.7777C136.007 32.822 134.444 31.4482 133.302 29.6563C132.16 27.8643 131.589 25.7738 131.589 23.3845C131.589 21.055 132.16 19.0242 133.302 17.292C134.444 15.5001 136.007 14.1562 137.99 13.2602ZM64.6277 46.779V2.24983H12.1603V13.2701H50.7446V46.779H64.6277ZM38.7646 68.959C38.7646 72.0053 39.4257 74.8126 40.7479 77.381C42.0701 79.8897 44.3239 82.0997 47.5092 84.0111C50.7546 85.8628 55.0818 87.1768 60.4908 87.9533L54.2705 98.7944C44.8347 97.0623 37.9232 93.6277 33.5359 88.4909C32.2509 86.9864 31.1541 85.364 30.2454 83.6237C29.3368 85.364 28.2399 86.9864 26.9549 88.4909C22.5676 93.6277 15.6561 97.0623 6.22037 98.7944L0 87.9533C5.40902 87.1768 9.70618 85.8628 12.8915 84.0111C16.1369 82.0997 18.4207 79.8897 19.7429 77.381C21.0651 74.8126 21.7262 72.0053 21.7262 68.959H3.33556V57.6699H23.2588V45.3953H37.4124V57.6699H57.4257V68.959H38.7646ZM95.5793 35.8384C100.327 35.8384 104.715 36.8538 108.741 38.8846C112.828 40.9155 116.043 43.7228 118.387 47.3067C120.791 50.8905 121.993 54.8626 121.993 59.2229C121.993 63.643 120.791 67.6449 118.387 71.2288C116.043 74.8126 112.828 77.6498 108.741 79.7404C104.715 81.7712 100.327 82.7867 95.5793 82.7867C90.8314 82.7867 86.414 81.7712 82.3272 79.7404C78.3005 77.6498 75.0851 74.8126 72.6811 71.2288C70.3372 67.6449 69.1653 63.643 69.1653 59.2229C69.1653 54.8626 70.3372 50.8905 72.6811 47.3067C75.0851 43.7228 78.3005 40.9155 82.3272 38.8846C86.414 36.8538 90.8314 35.8384 95.5793 35.8384ZM95.5793 47.665C93.1152 47.665 90.8915 48.1429 88.9082 49.0986C86.9249 49.9945 85.3623 51.3385 84.2204 53.1304C83.0784 54.8626 82.5075 56.8934 82.5075 59.2229C82.5075 61.6121 83.0784 63.7027 84.2204 65.4946C85.3623 67.2866 86.9249 68.6604 88.9082 69.6161C90.8915 70.512 93.1152 70.96 95.5793 70.96C98.0434 70.96 100.267 70.512 102.25 69.6161C104.234 68.6604 105.796 67.2866 106.938 65.4946C108.08 63.7027 108.651 61.6121 108.651 59.2229C108.651 56.8934 108.08 54.8626 106.938 53.1304C105.796 51.3385 104.234 49.9945 102.25 49.0986C100.267 48.1429 98.0434 47.665 95.5793 47.665ZM188.374 90.8901V102H135.185V95.1011V90.8901V58.9043H149.339V90.8901H188.374ZM233.369 43.9518V32.9315H181.623V66.7091V70.0242V77.7294H234V66.7091H195.776V43.9518H233.369Z" fill="#ddd"/>
</svg>
