<svg width="66" height="64" viewBox="0 0 66 64" fill="none" xmlns="http://www.w3.org/2000/svg">
<path d="M34.9519 6V29.5431H27.6117V11.8266H7.21176V6H34.9519Z" fill="black"/>
<path d="M18.5133 40.8436V41.2699C18.5133 45.4385 17.3535 48.8808 15.0339 51.5967C12.7142 54.3126 9.06004 56.1285 4.07126 57.0443L0.782475 51.3125C3.64229 50.9019 5.91425 50.2072 7.59836 49.2282C9.31425 48.2176 10.5217 47.0491 11.2208 45.7228C11.9199 44.3648 12.2694 42.8805 12.2694 41.2699V40.8436H18.5133ZM21.2778 40.8436V41.2699C21.2778 42.8805 21.6273 44.3648 22.3264 45.7228C23.0255 47.0491 24.217 48.2176 25.9012 49.2282C27.617 50.2072 29.9049 50.9019 32.7647 51.3125L29.4759 57.0443C24.4871 56.1285 20.8329 54.3126 18.5133 51.5967C16.1937 48.8808 15.0339 45.4385 15.0339 41.2699V40.8436H21.2778ZM31.1441 35.3013V41.2699H2.54603V35.3013H31.1441ZM20.5628 28.8115V38.333H13.0797V28.8115H20.5628Z" fill="black"/>
<path d="M51.3164 23.7587C53.8267 23.7587 56.1463 24.2955 58.2753 25.3693C60.436 26.443 62.136 27.9273 63.3753 29.8221C64.6463 31.7169 65.2818 33.817 65.2818 36.1224C65.2818 38.4593 64.6463 40.5752 63.3753 42.47C62.136 44.3648 60.436 45.8649 58.2753 46.9702C56.1463 48.0439 53.8267 48.5808 51.3164 48.5808C48.8061 48.5808 46.4706 48.0439 44.3099 46.9702C42.1809 45.8649 40.4809 44.3648 39.2099 42.47C37.9706 40.5752 37.351 38.4593 37.351 36.1224C37.351 33.817 37.9706 31.7169 39.2099 29.8221C40.4809 27.9273 42.1809 26.443 44.3099 25.3693C46.4706 24.2955 48.8061 23.7587 51.3164 23.7587ZM51.3164 30.0116C50.0136 30.0116 48.8379 30.2642 47.7893 30.7695C46.7407 31.2432 45.9145 31.9538 45.3108 32.9012C44.7071 33.817 44.4052 34.8907 44.4052 36.1224C44.4052 37.3856 44.7071 38.4909 45.3108 39.4383C45.9145 40.3857 46.7407 41.112 47.7893 41.6173C48.8379 42.091 50.0136 42.3279 51.3164 42.3279C52.6192 42.3279 53.7949 42.091 54.8435 41.6173C55.8921 41.112 56.7183 40.3857 57.322 39.4383C57.9257 38.4909 58.2276 37.3856 58.2276 36.1224C58.2276 34.8907 57.9257 33.817 57.322 32.9012C56.7183 31.9538 55.8921 31.2432 54.8435 30.7695C53.7949 30.2642 52.6192 30.0116 51.3164 30.0116Z" fill="black"/>
</svg>
